<?xml version="1.0" encoding="UTF-8"?>
<svg id="Layer_1" xmlns="http://www.w3.org/2000/svg" version="1.1" viewBox="0 0 160 160">
  <!-- Generator: Adobe Illustrator 29.7.1, SVG Export Plug-In . SVG Version: 2.1.1 Build 8)  -->
  <path d="M153.26,74.77h-41.49c-2.22-5.29-3.43-9.97-7.12-14.57-12.59-15.72-36.74-15.69-49.3,0-3.68,4.6-4.9,9.27-7.12,14.57H6.74C7.96,42.25,33.32,14.05,64.9,7.69c43.71-8.8,85.94,22.34,88.36,67.08Z"/>
  <path d="M153.26,85.23c-1.22,32.51-26.57,60.72-58.15,67.08-43.71,8.8-85.94-22.34-88.36-67.08h41.49c2.18,5.45,3.31,9.88,7.12,14.57,12.79,15.74,36.54,15.71,49.3,0,3.81-4.69,4.93-9.11,7.12-14.57h41.49Z"/>
  <ellipse cx="80" cy="80" rx="22.14" ry="22.15"/>
</svg>